<?xml version="1.0" encoding="UTF-8"?>
<svg width="100px" height="17px" viewBox="0 0 100 17" version="1.1" xmlns="http://www.w3.org/2000/svg" xmlns:xlink="http://www.w3.org/1999/xlink">
    <!-- Generator: Sketch 64 (93537) - https://sketch.com -->
    <title>logo / horizontal / black</title>
    <desc>Created with Sketch.</desc>
    <g id="Pages" stroke="none" stroke-width="1" fill="none" fill-rule="evenodd">
        <g id="Listing-Page" transform="translate(-93.000000, -40.000000)" fill="#0A0B09">
            <g id="logo-/-horizontal-/-black" transform="translate(93.000000, 40.000000)">
                <path d="M7.81547454,10.554246 L5.03504502,10.554246 L6.44917162,5.16537442 L7.81547454,10.554246 Z M4.79925454,0 L0.0107233517,16.9618067 L0,17 L3.3183227,17 L4.23042387,13.4818778 L8.61984917,13.4818778 L9.55660173,17 L12.9980581,17 L8.1740289,0 L4.79925454,0 L4.79925454,0 Z M17.0363244,3.0723327 L17.9176114,3.0723327 C19.0990289,3.0723327 20.026907,3.49788091 20.6754849,4.33741088 C21.3766935,5.24513459 21.7322897,6.61720223 21.7322897,8.41566146 L21.7322897,8.65662873 C21.7322897,10.4549675 21.3766935,11.8271556 20.6754849,12.7348793 C20.026907,13.5744093 19.0990289,13.9999575 17.9176114,13.9999575 L17.0363244,13.9999575 L17.0363244,3.0723327 Z M17.9669141,0.0722901813 L13.6714106,0.0722901813 L13.6714106,17 L17.9669141,17 C22.4934011,17 25.195809,13.9080285 25.195809,8.72891891 L25.195809,8.34325079 C25.195809,3.16426172 22.4934011,0.0722901813 17.9669141,0.0722901813 L17.9669141,0.0722901813 Z M29.5367943,3.09630895 L30.7385493,3.09630895 C32.5664493,3.09630895 33.4932181,3.97800819 33.4932181,5.71682802 C33.4932181,7.39745425 32.5161605,8.36144382 30.8125034,8.36144382 L29.5367943,8.36144382 L29.5367943,3.09630895 Z M31.0836686,0.0722901813 C32.9142804,0.0722901813 34.4135775,0.591936101 35.4193539,1.57508257 C36.360667,2.49509561 36.8581319,3.86909099 36.8581319,5.54815093 L36.8581319,5.54815093 L36.8581319,5.69273129 C36.8581319,7.84734015 35.9493587,9.49254419 34.2294317,10.4523168 L34.2294317,10.4523168 L37.2695635,17 L33.5287161,17 L30.9403209,11.2890757 L29.5367943,11.2890757 L29.5367943,17 L26.1718805,17 L26.1718805,0.0722901813 Z M47.1720241,0.0722901813 L47.1720241,3.12040568 L41.4776779,3.12040568 L41.4776779,6.96383365 L46.5064368,6.96383365 L46.5064368,10.0120696 L41.4776779,10.0120696 L41.4776779,13.951764 L47.2707529,13.951764 L47.2707529,17 L38.1375387,17 L38.1375387,0.0722901813 L47.1720241,0.0722901813 Z M51.6736132,0.0722901813 L56.5295659,9.18410608 L56.5295659,0.0722901813 L59.8205256,0.0722901813 L59.8205256,17 L56.9114159,17 L56.9027879,16.9837347 L51.8582521,7.50275695 L51.8582521,17 L48.5672924,17 L48.5672924,0.0722901813 L51.6736132,0.0722901813 Z M68.3192132,10.554246 L65.5387837,10.554246 L66.9529103,5.16537442 L68.3192132,10.554246 Z M68.6777676,0 L73.50192,17 L70.0602172,17 L69.1235879,13.4818778 L64.7341626,13.4818778 L63.8220614,17 L60.5037387,17 L60.514462,16.9618067 L65.3031165,0 L68.6777676,0 Z M77.5399399,0.0722901813 L77.5399399,13.9276673 L82.4700933,13.9276673 L82.4700933,17 L74.1750261,17 L74.1750261,0.0722901813 L77.5399399,0.0722901813 Z M86.7669526,0.0722901813 L86.7669526,17 L83.4268134,17 L83.4268134,0.0722901813 L86.7669526,0.0722901813 Z M91.603554,0.0722901813 L91.6123052,0.0884349884 L96.45963,9.18410608 L96.45963,0.0722901813 L99.7505896,0.0722901813 L99.7505896,17 L96.8414799,17 L96.8328519,16.9837347 L91.7881929,7.50275695 L91.7881929,17 L88.4973564,17 L88.4973564,0.0722901813 L91.603554,0.0722901813 Z" id="Fill-1"></path>
            </g>
        </g>
    </g>
</svg>